<svg width="20" height="19" viewBox="0 0 20 19" fill="none" xmlns="http://www.w3.org/2000/svg">
<path d="M18.032 4.83646L12.2777 1.20905C10.7093 0.218935 8.3017 0.272941 6.79321 1.32606L1.78821 4.84546C0.789211 5.54754 0 6.9877 0 8.12183V14.3325C0 16.6278 2.06793 18.5 4.61538 18.5H15.3846C17.9321 18.5 20 16.6368 20 14.3415V8.23884C20 7.0237 19.1309 5.52953 18.032 4.83646ZM10.7493 14.8996C10.7493 15.2686 10.4096 15.5747 10 15.5747C9.59041 15.5747 9.25075 15.2686 9.25075 14.8996V12.1993C9.25075 11.8302 9.59041 11.5242 10 11.5242C10.4096 11.5242 10.7493 11.8302 10.7493 12.1993V14.8996Z" fill="#B6B6B6"/>
</svg>
