<svg width="21" height="22" viewBox="0 0 21 22" fill="none" xmlns="http://www.w3.org/2000/svg">
<path d="M17.6837 7.34251L10.9462 11.245C10.6749 11.4025 10.3337 11.4025 10.0537 11.245L3.31619 7.34251C2.83494 7.06251 2.71244 6.40626 3.07994 5.99501C3.33369 5.70626 3.62244 5.47001 3.92869 5.30376L8.67119 2.67876C9.68619 2.11001 11.3312 2.11001 12.3462 2.67876L17.0887 5.30376C17.3949 5.47001 17.6837 5.71501 17.9374 5.99501C18.2874 6.40626 18.1649 7.06251 17.6837 7.34251Z" fill="#B6B6B6"/>
<path d="M10.0012 12.8725V18.84C10.0012 19.505 9.32742 19.9425 8.73242 19.6538C6.92992 18.77 3.89367 17.1163 3.89367 17.1163C2.82617 16.5125 1.95117 14.99 1.95117 13.7388V9.22377C1.95117 8.53252 2.67742 8.09502 3.27242 8.43627L9.56367 12.085C9.82617 12.2513 10.0012 12.5488 10.0012 12.8725Z" fill="#B6B6B6"/>
<path d="M10.9985 12.8725V18.84C10.9985 19.505 11.6723 19.9425 12.2673 19.6538C14.0698 18.77 17.106 17.1163 17.106 17.1163C18.1735 16.5125 19.0485 14.99 19.0485 13.7388V9.22377C19.0485 8.53252 18.3223 8.09502 17.7273 8.43627L11.436 12.085C11.1735 12.2513 10.9985 12.5488 10.9985 12.8725Z" fill="#B6B6B6"/>
</svg>
