<svg width="22" height="24" viewBox="0 0 22 24" fill="none" xmlns="http://www.w3.org/2000/svg">
<path d="M14.8957 22.0179C15.7816 22.0179 16.4998 21.2512 16.4998 20.3054C16.4998 19.3596 15.7816 18.5929 14.8957 18.5929C14.0097 18.5929 13.2915 19.3596 13.2915 20.3054C13.2915 21.2512 14.0097 22.0179 14.8957 22.0179Z" fill="#F4F4F4"/>
<path d="M7.56266 22.0179C8.44862 22.0179 9.16683 21.2512 9.16683 20.3054C9.16683 19.3596 8.44862 18.5929 7.56266 18.5929C6.67671 18.5929 5.9585 19.3596 5.9585 20.3054C5.9585 21.2512 6.67671 22.0179 7.56266 22.0179Z" fill="#F4F4F4"/>
<path d="M4.43683 3.85557L4.2535 6.25308C4.21683 6.71301 4.556 7.09465 4.98683 7.09465H19.021C19.406 7.09465 19.7268 6.78151 19.7543 6.37051C19.8735 4.63843 18.636 3.22928 17.0135 3.22928H5.74766C5.656 2.79871 5.47266 2.38771 5.1885 2.04521C4.73016 1.52656 4.0885 1.22321 3.4285 1.22321H1.8335C1.45766 1.22321 1.146 1.55592 1.146 1.95714C1.146 2.35835 1.45766 2.69107 1.8335 2.69107H3.4285C3.71266 2.69107 3.9785 2.81828 4.171 3.03357C4.3635 3.25864 4.45516 3.55221 4.43683 3.85557Z" fill="#F4F4F4"/>
<path d="M18.8007 8.5625H4.73905C4.35405 8.5625 4.04239 8.87564 4.00572 9.27686L3.67572 13.5337C3.54739 15.207 4.77572 16.6357 6.34322 16.6357H16.5366C17.9116 16.6357 19.1216 15.4321 19.2224 13.9642L19.5249 9.39429C19.5616 8.94414 19.2316 8.5625 18.8007 8.5625Z" fill="#F4F4F4"/>
</svg>
